<svg width="32" height="32" viewBox="0 0 32 32" fill="none" xmlns="http://www.w3.org/2000/svg">
<rect width="32" height="32" rx="16" fill="url(#paint0_linear_351_225)"/>
<path d="M26.9813 17.1544C26.9937 16.9378 27 16.7197 27 16.5C27 16.2803 26.9937 16.0622 26.9813 15.8456H23.4774C22.9247 15.8456 22.3985 16.0839 22.0305 16.5C22.3985 16.9161 22.9247 17.1544 23.4774 17.1544H26.9813Z" fill="white"/>
<path d="M26.8293 18.4631H23.4774C22.5444 18.4631 21.6569 18.0558 21.0426 17.3458L20.3108 16.5L21.0426 15.6542C21.6569 14.9442 22.5444 14.5369 23.4774 14.5369H26.8293C26.7507 14.0909 26.6459 13.6541 26.5165 13.2282H23.4774C22.1713 13.2282 20.9287 13.7984 20.0686 14.7924L19.451 15.5063L19.4451 15.4995L18.5853 16.4932L18.5912 16.5L18.5853 16.5068L19.4451 17.5005L19.451 17.4937L20.0686 18.2076C20.9287 19.2016 22.1713 19.7718 23.4774 19.7718H26.5165C26.6459 19.3459 26.7507 18.9091 26.8293 18.4631Z" fill="white"/>
<path d="M26.0272 21.0805H23.4656C21.7863 21.0805 20.1887 20.3474 19.0829 19.0694L17.7196 17.4937L16.8598 18.4874L18.109 19.9312C19.4605 21.4932 21.4131 22.3892 23.4656 22.3892H25.3338C25.5924 21.9708 25.8244 21.5338 26.0272 21.0805Z" fill="white"/>
<path d="M24.3871 23.6979H23.4537C21.0281 23.6979 18.7205 22.639 17.1232 20.793L16.8598 20.4885L16.8657 20.4816L16.0059 19.4879L16 19.4948L15.9941 19.4879L15.1343 20.4816L15.1402 20.4885L14.8768 20.793C13.2795 22.639 10.9719 23.6979 8.54626 23.6979H7.61287C8.00692 24.167 8.43877 24.6027 8.90366 25C11.5708 24.9007 14.0863 23.694 15.8507 21.6547L16 21.4822L16.1493 21.6547C17.9137 23.694 20.4292 24.9007 23.0963 25C23.5612 24.6027 23.9931 24.167 24.3871 23.6979Z" fill="white"/>
<path d="M6.66625 22.3892H8.53444C10.5869 22.3892 12.5395 21.4932 13.891 19.9312L19.0829 13.9306C20.1887 12.6526 21.7863 11.9195 23.4656 11.9195H26.0272C25.8244 11.4662 25.5924 11.0292 25.3338 10.6108H23.4656C21.4131 10.6108 19.4605 11.5068 18.109 13.0688L12.9171 19.0694C11.8113 20.3474 10.2137 21.0805 8.53444 21.0805H5.97284C6.17561 21.5338 6.40756 21.9708 6.66625 22.3892Z" fill="white"/>
<path d="M5.48348 19.7718H8.52263C9.70619 19.7718 10.8375 19.3036 11.6794 18.4761L10.8256 17.4893C10.2196 18.1104 9.39079 18.4631 8.52263 18.4631H5.17074C5.24926 18.9091 5.35407 19.3459 5.48348 19.7718Z" fill="white"/>
<path d="M5 16.5C5 16.7197 5.0063 16.9378 5.01872 17.1544H8.52263C9.07533 17.1544 9.60147 16.9161 9.96949 16.5C9.9276 16.4526 9.88366 16.4076 9.83787 16.3649C9.48135 16.0327 9.01242 15.8456 8.52262 15.8456H5.01872C5.0063 16.0622 5 16.2803 5 16.5Z" fill="white"/>
<path d="M5.17074 14.5369H8.52262C9.45556 14.5369 10.3431 14.9442 10.9574 15.6542L12.5549 17.5005L13.4147 16.5068L11.9314 14.7924C11.0713 13.7984 9.82874 13.2282 8.52262 13.2282H5.48348C5.35407 13.6541 5.24926 14.0909 5.17074 14.5369Z" fill="white"/>
<path d="M5.97284 11.9195H8.53444C10.2137 11.9195 11.8113 12.6526 12.9171 13.9306L14.2804 15.5063L15.1402 14.5126L13.891 13.0688C12.5395 11.5068 10.5869 10.6108 8.53444 10.6108H6.66625C6.40756 11.0292 6.17561 11.4662 5.97284 11.9195Z" fill="white"/>
<path d="M7.61287 9.30207H8.54626C10.9719 9.30207 13.2795 10.361 14.8768 12.207L15.1402 12.5115L15.1343 12.5184L15.9941 13.5121L16 13.5052L16.0059 13.5121L16.8657 12.5184L16.8598 12.5115L17.1232 12.207C18.7205 10.361 21.0281 9.30207 23.4537 9.30207H24.3871C23.9931 8.83296 23.5612 8.39733 23.0963 8C20.4292 8.09926 17.9137 9.30605 16.1493 11.3453L16 11.5178L15.8507 11.3453C14.0863 9.30605 11.5708 8.09926 8.90366 8C8.43877 8.39733 8.00692 8.83296 7.61287 9.30207Z" fill="white"/>
<defs>
<linearGradient id="paint0_linear_351_225" x1="16" y1="0" x2="16" y2="32" gradientUnits="userSpaceOnUse">
<stop stop-color="#A579FF"/>
<stop offset="1" stop-color="#E175E5"/>
</linearGradient>
</defs>
</svg>
